PathFileType	4	(x/y/z)	S08_P20_T19
DataRate	CameraRate	NumFrames	NumMarkers	Units	OrigDataRate	OrigDataStartFrame	OrigNumFrames
240	240	9	51	mm	240	345	394
Frame#	Time	Sternum			R.Acromium			L.Acromium			Top.Head			R.ASIS			L.ASIS			R.PSIS			L.PSIS			R.Great.Tro			L.Great.Tro			R.Iliac.Crest			L.Iliac.Crest			V.Sacral			R.Thigh.Upper.Post			R.Thigh.Lower.Ant			R.Thigh.Lower.Post			R.Thigh.Upper.Ant			R.Knee.Lat			R.Knee.Med			R.Shank.Upper.Post			R.Shank.Lower.Ant			R.Shank.Lower.Post			R.Shank.Upper.Ant			R.Ankle.Lat			R.Ankle.Med			R.Heel.Upper			R.Heel.Med			R.Heel.Lat			R.Toe.Lat			R.Toe.Med			R.Toe.Tip			L.Thigh.Upper.Post			L.Thigh.Lower.Ant			L.Thigh.Lower.Post			L.Thigh.Upper.Ant			L.Knee.Lat			L.Knee.Med			L.Shank.Upper.Post			L.Shank.Lower.Ant			L.Shank.Lower.Post			L.Shank.Upper.Ant			L.Ankle.Lat			L.Ankle.Med			L.Heel.Upper			L.Heel.Med			L.Heel.Lat			L.Toe.Lat			L.Toe.Med			L.Toe.Tip			Cervical.Spine			Back			
		X1	Y1	Z1	X2	Y2	Z2	X3	Y3	Z3	X4	Y4	Z4	X5	Y5	Z5	X6	Y6	Z6	X7	Y7	Z7	X8	Y8	Z8	X9	Y9	Z9	X10	Y10	Z10	X11	Y11	Z11	X12	Y12	Z12	X13	Y13	Z13	X14	Y14	Z14	X15	Y15	Z15	X16	Y16	Z16	X17	Y17	Z17	X18	Y18	Z18	X19	Y19	Z19	X20	Y20	Z20	X21	Y21	Z21	X22	Y22	Z22	X23	Y23	Z23	X24	Y24	Z24	X25	Y25	Z25	X26	Y26	Z26	X27	Y27	Z27	X28	Y28	Z28	X29	Y29	Z29	X30	Y30	Z30	X31	Y31	Z31	X32	Y32	Z32	X33	Y33	Z33	X34	Y34	Z34	X35	Y35	Z35	X36	Y36	Z36	X37	Y37	Z37	X38	Y38	Z38	X39	Y39	Z39	X40	Y40	Z40	X41	Y41	Z41	X42	Y42	Z42	X43	Y43	Z43	X44	Y44	Z44	X45	Y45	Z45	X46	Y46	Z46	X47	Y47	Z47	X48	Y48	Z48	X49	Y49	Z49	X50	Y50	Z50	X51	Y51	Z51	

345	1.4333	548.62	1206.2	311.92	429.17	1441.2	489.14	424.31	1476	153.84	437.93	1766	346.42	515.48	1001.3	417.61	516.3	995.78	185.25	314.04	1018.7	345.07	319.56	1022.8	251.85	462.81	893.26	491.14	415.63	891.28	121.21	416.97	1065.6	464.9	424.73	1078.6	156.6	301.45	980.03	296.7	504.62	693.17	471.28	612.02	626.75	437.57	542.3	612.14	449.21	583.19	714.31	462.45	612.5	529.15	429.34	579.92	522.04	305.57	586.25	336.8	439.34	656.5	286.48	414.36	599.61	260.91	431.81	643.72	362.64	422.95	628.54	97.178	397.11	655.27	117.24	317.39	588.9	60.949	345.8	604.53	35.518	319.4	596.33	37.319	381.21	NaN	NaN	NaN	786.15	67.047	310.75	844.91	96.038	357.88	359.84	695	142.48	428.23	591.04	164.25	360.77	603.8	163.23	428.19	677.86	141.76	348.17	504.01	180.66	360.23	499.97	304.73	207.37	375.97	180.15	220.47	266.91	199.78	167.51	315.3	196.19	256.27	332.76	183.94	97.496	152.97	211.85	122.6	148.17	295.5	35.75	145.13	261.02	35.597	110.05	292.62	31.786	116.04	228.14	185.44	41.159	195.76	208.29	44.043	310.63	270.44	42.815	262.9	359.68	1503.6	315.67	312.84	1220.6	312.78
346	1.4375	554.46	1206.5	312.34	434.87	1441.3	489.71	429.46	1476	154.37	443.38	1766.1	346.91	521.58	1001.4	418.02	522.38	995.84	185.73	320.07	1018.7	345.45	325.65	1022.7	252.25	468.99	893.47	491.59	421.98	890.86	121.73	423.09	1065.7	465.29	430.66	1078.5	156.97	307.52	979.96	297.11	510.45	693.37	471.57	617.61	626.7	437.56	547.91	612.24	449.49	588.99	714.34	462.38	617.76	528.96	429.39	584.53	521.92	305.83	590.1	336.69	439.59	659.78	285.78	414.3	602.77	260.72	432.06	647.71	362.03	422.89	629.68	96.918	397.07	656.52	116.63	317.45	589.39	61.419	345.83	604.67	35.733	319.45	596.53	37.65	381.25	NaN	NaN	NaN	786.78	64.814	310.6	846.02	93.039	357.7	367.74	693.76	143.18	437.23	590.41	164.26	369.63	602.59	163.62	436.28	677.31	142.13	357.82	503.11	180.59	370.36	498.69	304.52	215.44	377.52	180.01	226.67	268.23	199.3	174.56	317.54	195.97	263.58	333.48	183.54	101.79	156.46	211.31	127.01	151.22	294.83	40.279	150.67	260.61	39.13	115.86	292.36	35.336	121.59	227.85	186.14	41.977	195.7	209.21	44.882	310.52	270.72	42.458	262.92	365.13	1503.6	316.32	318.63	1220.5	313.42
347	1.4417	560.28	1206.8	312.73	440.59	1441.4	490.27	434.58	1476.2	154.9	448.84	1766.2	347.4	527.64	1001.7	418.45	528.44	995.93	186.24	326.06	1018.8	345.8	331.71	1022.6	252.63	475.15	893.77	492.05	428.36	890.43	122.26	429.16	1066	465.67	436.56	1078.5	157.32	313.56	979.93	297.5	516.31	693.65	471.92	623.21	626.73	437.58	553.54	612.41	449.85	594.79	714.45	462.31	623	528.83	429.47	589.06	521.87	306.13	593.91	336.63	439.88	663	285.14	414.26	605.87	260.58	432.35	651.65	361.48	422.87	630.75	96.715	397.03	657.68	116.08	317.52	589.82	61.872	345.88	604.78	35.956	319.5	596.69	37.974	381.3	NaN	NaN	NaN	787.34	62.73	310.45	847.03	90.213	357.52	375.8	692.47	143.83	446.43	589.81	164.23	378.7	601.35	163.95	444.53	676.77	142.47	367.73	502.19	180.45	380.79	497.37	304.25	223.82	379.1	179.84	233.16	269.61	198.79	181.93	319.83	195.72	271.18	334.24	183.12	106.44	160.09	210.74	131.73	154.4	294.15	45.221	156.45	260.17	43.026	121.94	292.07	39.258	127.43	227.53	186.95	42.948	195.62	210.23	45.805	310.4	271.04	42.08	262.94	370.58	1503.6	316.97	324.39	1220.5	314.07
348	1.4458	566.06	1207.1	313.11	446.35	1441.6	490.82	439.68	1476.4	155.43	454.3	1766.4	347.89	533.65	1002	418.9	534.47	996.05	186.77	332.01	1018.9	346.13	337.73	1022.5	252.97	481.28	894.17	492.53	434.76	890	122.78	435.18	1066.3	466.03	442.44	1078.5	157.66	319.57	979.93	297.88	522.18	694	472.33	628.81	626.85	437.61	559.17	612.66	450.27	600.57	714.63	462.25	628.2	528.74	429.57	593.54	521.86	306.45	597.66	336.62	440.22	666.16	284.54	414.23	608.92	260.49	432.67	655.53	360.97	422.87	631.75	96.564	396.99	658.75	115.6	317.59	590.21	62.302	345.93	604.87	36.18	319.56	596.82	38.286	381.36	NaN	NaN	NaN	787.83	60.801	310.31	847.95	87.574	357.34	384.01	691.15	144.43	455.82	589.21	164.16	387.96	600.08	164.21	452.92	676.23	142.77	377.89	501.26	180.25	391.5	496.04	303.94	232.52	380.72	179.64	239.96	271.06	198.25	189.63	322.18	195.45	279.09	335.04	182.66	111.43	163.87	210.15	136.77	157.69	293.47	50.592	162.46	259.72	47.301	128.29	291.74	43.572	133.56	227.18	187.89	44.087	195.53	211.37	46.824	310.25	271.42	41.681	262.94	376.04	1503.7	317.62	330.12	1220.6	314.71
349	1.45	571.81	1207.5	313.46	452.13	1441.8	491.35	444.78	1476.6	155.95	459.75	1766.7	348.39	539.6	1002.4	419.36	540.47	996.2	187.31	337.93	1019	346.43	343.7	1022.4	253.29	487.38	894.65	493.02	441.17	889.56	123.29	441.14	1066.7	466.39	448.29	1078.5	158	325.54	979.96	298.25	528.06	694.42	472.81	634.4	627.03	437.67	564.81	612.97	450.75	606.35	714.89	462.21	633.36	528.68	429.69	597.97	521.91	306.8	601.34	336.64	440.59	669.24	283.99	414.22	611.89	260.44	433	659.32	360.51	422.91	632.67	96.461	396.95	659.74	115.19	317.66	590.54	62.704	345.99	604.94	36.4	319.62	596.94	38.581	381.41	NaN	NaN	NaN	788.27	59.032	310.18	848.78	85.131	357.16	392.34	689.79	144.98	465.38	588.64	164.06	397.41	598.79	164.41	461.44	675.71	143.04	388.29	500.31	179.98	402.48	494.68	303.59	241.52	382.38	179.41	247.06	272.57	197.69	197.64	324.57	195.17	287.28	335.88	182.19	116.79	167.8	209.53	142.14	161.11	292.78	56.402	168.68	259.24	51.969	134.88	291.38	48.295	139.95	226.8	189	45.405	195.42	212.64	47.95	310.09	271.87	41.26	262.92	381.5	1503.8	318.27	335.83	1220.7	315.36
350	1.4542	577.53	1208	313.78	457.93	1442	491.87	449.86	1476.9	156.46	465.2	1766.9	348.88	545.51	1002.9	419.83	546.42	996.36	187.87	343.8	1019.2	346.72	349.62	1022.4	253.58	493.44	895.22	493.53	447.59	889.11	123.8	447.05	1067.2	466.73	454.1	1078.5	158.32	331.48	980.01	298.6	533.94	694.89	473.34	639.97	627.28	437.74	570.43	613.34	451.28	612.1	715.21	462.17	638.46	528.65	429.82	602.37	522	307.16	604.94	336.7	440.99	672.23	283.48	414.22	614.79	260.43	433.33	663.02	360.08	422.96	633.52	96.399	396.9	660.65	114.84	317.73	590.84	63.076	346.04	605	36.612	319.69	597.04	38.857	381.47	NaN	NaN	NaN	788.66	57.425	310.05	849.53	82.888	356.99	400.8	688.4	145.49	475.11	588.1	163.92	407.03	597.49	164.54	470.09	675.2	143.28	398.9	499.36	179.64	413.72	493.31	303.21	250.82	384.07	179.16	254.45	274.15	197.11	205.97	327.01	194.87	295.76	336.77	181.69	122.52	171.86	208.88	147.84	164.63	292.09	62.66	175.1	258.74	57.044	141.7	290.99	53.445	146.59	226.38	190.28	46.917	195.28	214.06	49.196	309.9	272.41	40.818	262.88	386.95	1504	318.91	341.51	1220.8	316
351	1.4583	583.2	1208.4	314.09	463.75	1442.3	492.37	454.94	1477.3	156.97	470.64	1767.2	349.38	551.37	1003.5	420.31	552.33	996.54	188.44	349.63	1019.4	346.98	355.5	1022.4	253.85	499.48	895.85	494.04	454.01	888.66	124.31	452.89	1067.7	467.07	459.87	1078.5	158.62	337.37	980.09	298.95	539.8	695.41	473.93	645.51	627.57	437.82	576.02	613.75	451.85	617.83	715.57	462.16	643.49	528.64	429.97	606.73	522.13	307.52	608.44	336.79	441.4	675.13	283.01	414.23	617.6	260.44	433.67	666.63	359.68	423.04	634.3	96.374	396.84	661.48	114.54	317.79	591.1	63.414	346.1	605.04	36.811	319.75	597.13	39.112	381.53	NaN	NaN	NaN	789	55.976	309.92	850.21	80.847	356.81	409.35	686.97	145.96	484.97	587.6	163.75	416.8	596.19	164.6	478.85	674.71	143.47	409.73	498.41	179.25	425.21	491.95	302.8	260.41	385.79	178.88	262.14	275.78	196.52	214.61	329.5	194.57	304.52	337.7	181.19	128.61	176.04	208.21	153.87	168.27	291.42	69.369	181.69	258.21	62.536	148.72	290.55	59.033	153.47	225.92	191.77	48.63	195.13	215.64	50.573	309.68	273.06	40.361	262.81	392.41	1504.2	319.54	347.17	1221	316.63
352	1.4625	588.83	1208.9	314.36	469.58	1442.7	492.84	460.01	1477.7	157.47	476.07	1767.5	349.88	557.18	1004.1	420.8	558.19	996.73	189.03	355.42	1019.7	347.24	361.32	1022.4	254.1	505.47	896.54	494.56	460.43	888.2	124.82	458.67	1068.3	467.39	465.6	1078.6	158.92	343.22	980.18	299.28	545.63	695.97	474.55	650.99	627.88	437.91	581.56	614.19	452.46	623.5	715.96	462.17	648.44	528.64	430.12	611.06	522.29	307.87	611.85	336.89	441.82	677.93	282.56	414.25	620.31	260.48	434.01	670.12	359.3	423.14	635.02	96.38	396.78	662.22	114.29	317.84	591.32	63.72	346.15	605.09	36.996	319.81	597.21	39.344	381.58	NaN	NaN	NaN	789.29	54.683	309.79	850.8	79.005	356.64	417.99	685.53	146.39	494.96	587.13	163.55	426.7	594.89	164.6	487.69	674.24	143.62	420.74	497.48	178.81	436.91	490.6	302.38	270.28	387.54	178.6	270.11	277.48	195.93	223.54	332.02	194.27	313.55	338.68	180.68	135.07	180.34	207.52	160.24	171.99	290.75	76.53	188.42	257.65	68.452	155.92	290.09	65.07	160.55	225.42	193.49	50.551	194.94	217.42	52.091	309.44	273.86	39.891	262.71	397.86	1504.4	320.16	352.79	1221.3	317.26
353	1.4667	594.43	1209.4	314.62	475.43	1443.1	493.3	465.09	1478.2	157.95	481.5	1767.9	350.37	562.93	1004.7	421.3	563.99	996.93	189.61	361.17	1019.9	347.48	367.09	1022.4	254.33	511.43	897.28	495.09	466.84	887.74	125.32	464.4	1068.9	467.71	471.28	1078.6	159.2	349.02	980.3	299.62	551.41	696.54	475.22	656.39	628.21	438.02	587.02	614.65	453.1	629.12	716.36	462.2	653.28	528.65	430.27	615.35	522.47	308.22	615.14	337	442.25	680.63	282.14	414.28	622.92	260.53	434.33	673.5	358.95	423.26	635.67	96.413	396.7	662.9	114.07	317.88	591.51	63.991	346.19	605.12	37.165	319.86	597.27	39.553	381.64	NaN	NaN	NaN	789.55	53.539	309.67	851.33	77.354	356.47	426.7	684.09	146.8	505.06	586.72	163.33	436.73	593.62	164.55	496.62	673.81	143.72	431.92	496.59	178.32	448.81	489.28	301.94	280.41	389.33	178.3	278.37	279.23	195.35	232.76	334.58	193.97	322.85	339.71	180.18	141.9	184.74	206.8	166.94	175.8	290.1	84.141	195.27	257.08	74.797	163.26	289.58	71.56	167.79	224.89	195.47	52.682	194.74	219.41	53.757	309.17	274.82	39.418	262.57	403.31	1504.7	320.76	358.38	1221.6	317.87
